<?xml version="1.0" encoding="UTF-8"?>
<svg version="1.1" xmlns="http://www.w3.org/2000/svg" width="430" height="512">
<path d="M0 0 C9.0139776 5.08234907 13.5075576 12.32345404 16.6953125 21.88671875 C17.33921901 31.63199618 17.58420539 39.21144625 11.22265625 46.859375 C6.90286148 51.71886726 2.30348904 56.30197361 -2.3046875 60.88671875 C-3.1296875 61.71171875 -3.9546875 62.53671875 -4.8046875 63.38671875 C-22.3046875 80.88671875 -22.3046875 80.88671875 -24.609375 83.1640625 C-27.45122138 86.03473921 -30.20214866 88.97065641 -32.9296875 91.94921875 C-33.40664062 92.46548828 -33.88359375 92.98175781 -34.375 93.51367188 C-36.84276555 96.20422182 -39.1812804 98.91537391 -41.3046875 101.88671875 C-40.39203125 101.9640625 -40.39203125 101.9640625 -39.4609375 102.04296875 C-27.36419414 103.60842966 -16.30494983 110.14741153 -6.3046875 116.88671875 C-5.70914062 117.25667969 -5.11359375 117.62664062 -4.5 118.0078125 C-3.06437472 118.91086711 -1.67781344 119.89120244 -0.3046875 120.88671875 C-0.3046875 121.54671875 -0.3046875 122.20671875 -0.3046875 122.88671875 C0.4171875 123.11359375 1.1390625 123.34046875 1.8828125 123.57421875 C5.27324492 125.15642055 7.09785618 127.20049349 9.6953125 129.88671875 C10.49710937 130.67691406 11.29890625 131.46710938 12.125 132.28125 C15.99442892 136.10741055 19.79885571 139.92277658 23.3203125 144.07421875 C26.19874158 147.44589977 29.34780654 150.2465214 32.7265625 153.10546875 C35.37970843 155.50593412 37.60640086 158.19073226 39.9140625 160.91796875 C41.7281071 162.92296541 43.63238927 164.64116832 45.6953125 166.38671875 C49.14379066 169.30466181 51.99789972 172.46786662 54.90625 175.9140625 C56.75621573 177.95387187 58.70997078 179.68269675 60.8203125 181.44921875 C66.56838398 186.36181473 70.36941456 191.29293964 71.6953125 198.88671875 C72.3395345 208.4235051 72.09743388 216.78353667 66.6953125 224.88671875 C66.0353125 224.88671875 65.3753125 224.88671875 64.6953125 224.88671875 C64.44394531 225.48097656 64.19257813 226.07523438 63.93359375 226.6875 C62.53467032 229.17202332 61.16111317 230.37965094 58.8828125 232.07421875 C57.88314453 232.83798828 57.88314453 232.83798828 56.86328125 233.6171875 C49.967985 237.65497359 39.31244018 236.77462792 31.75 235.3203125 C29.3203125 234.57421875 29.3203125 234.57421875 25.6953125 232.88671875 C25.3653125 231.89671875 25.0353125 230.90671875 24.6953125 229.88671875 C23.8290625 229.70109375 23.8290625 229.70109375 22.9453125 229.51171875 C19.59225972 228.5803152 18.04179751 226.40489779 15.6953125 223.88671875 C14.8703125 223.06171875 14.0453125 222.23671875 13.1953125 221.38671875 C11.53902974 219.73043599 9.89299865 218.06383275 8.2578125 216.38671875 C5.72008297 213.83126012 5.72008297 213.83126012 2.8203125 211.57421875 C0.37033323 209.58048562 -1.63754375 207.42052013 -3.6796875 205.01171875 C-6.690796 201.47433244 -9.93479762 198.47073428 -13.46875 195.46484375 C-15.87920977 193.39287407 -18.08541071 191.16147746 -20.3046875 188.88671875 C-24.62551087 184.47396297 -28.97716938 180.22198902 -33.71484375 176.2578125 C-36.03362374 174.2580784 -38.14031254 172.05109371 -40.3046875 169.88671875 C-48.47119585 162.74806404 -58.63774837 160.09399858 -69.3046875 159.88671875 C-70.13613281 159.85964844 -70.96757812 159.83257812 -71.82421875 159.8046875 C-74.32399898 159.76138422 -76.80591121 159.80899631 -79.3046875 159.88671875 C-80.56345703 159.89445312 -80.56345703 159.89445312 -81.84765625 159.90234375 C-93.1536045 160.36994575 -103.32383798 164.3950954 -111.43359375 172.27734375 C-111.98385727 172.79881485 -112.53412079 173.32028595 -113.10105896 173.8575592 C-114.84778715 175.52181541 -116.57841262 177.20127039 -118.3046875 178.88671875 C-119.15256836 179.7126503 -119.15256836 179.7126503 -120.01757812 180.55526733 C-123.42781861 183.88759683 -126.8089448 187.24788975 -130.17407227 190.62573242 C-131.89418436 192.35130126 -133.61971076 194.07133047 -135.34570312 195.79101562 C-136.4586548 196.90462673 -137.57129698 198.01854726 -138.68359375 199.1328125 C-139.19088516 199.63807968 -139.69817657 200.14334686 -140.22084045 200.66392517 C-142.48009596 202.93807064 -144.55986654 205.21448628 -146.53100586 207.74633789 C-147.1163208 208.45266357 -147.70163574 209.15898926 -148.3046875 209.88671875 C-148.9646875 209.88671875 -149.6246875 209.88671875 -150.3046875 209.88671875 C-150.5728125 210.52609375 -150.8409375 211.16546875 -151.1171875 211.82421875 C-152.3046875 213.88671875 -152.3046875 213.88671875 -155.3046875 214.88671875 C-155.6346875 215.54671875 -155.9646875 216.20671875 -156.3046875 216.88671875 C-156.6346875 217.54671875 -156.9646875 218.20671875 -157.3046875 218.88671875 C-158.2946875 219.21671875 -159.2846875 219.54671875 -160.3046875 219.88671875 C-160.6346875 220.54671875 -160.9646875 221.20671875 -161.3046875 221.88671875 C-161.6346875 222.54671875 -161.9646875 223.20671875 -162.3046875 223.88671875 C-163.2946875 224.21671875 -164.2846875 224.54671875 -165.3046875 224.88671875 C-165.6346875 225.54671875 -165.9646875 226.20671875 -166.3046875 226.88671875 C-166.6346875 227.54671875 -166.9646875 228.20671875 -167.3046875 228.88671875 C-168.2946875 229.21671875 -169.2846875 229.54671875 -170.3046875 229.88671875 C-170.6346875 230.54671875 -170.9646875 231.20671875 -171.3046875 231.88671875 C-171.6346875 232.54671875 -171.9646875 233.20671875 -172.3046875 233.88671875 C-173.2946875 234.21671875 -174.2846875 234.54671875 -175.3046875 234.88671875 C-175.6346875 235.54671875 -175.9646875 236.20671875 -176.3046875 236.88671875 C-176.6346875 237.54671875 -176.9646875 238.20671875 -177.3046875 238.88671875 C-178.2946875 239.21671875 -179.2846875 239.54671875 -180.3046875 239.88671875 C-180.6346875 240.54671875 -180.9646875 241.20671875 -181.3046875 241.88671875 C-181.6346875 242.54671875 -181.9646875 243.20671875 -182.3046875 243.88671875 C-183.2946875 244.21671875 -184.2846875 244.54671875 -185.3046875 244.88671875 C-185.6346875 245.54671875 -185.9646875 246.20671875 -186.3046875 246.88671875 C-186.6346875 247.54671875 -186.9646875 248.20671875 -187.3046875 248.88671875 C-188.2946875 249.21671875 -189.2846875 249.54671875 -190.3046875 249.88671875 C-190.6346875 250.54671875 -190.9646875 251.20671875 -191.3046875 251.88671875 C-191.6346875 252.54671875 -191.9646875 253.20671875 -192.3046875 253.88671875 C-193.2946875 254.21671875 -194.2846875 254.54671875 -195.3046875 254.88671875 C-195.6346875 255.54671875 -195.9646875 256.20671875 -196.3046875 256.88671875 C-196.6346875 257.54671875 -196.9646875 258.20671875 -197.3046875 258.88671875 C-198.2946875 259.21671875 -199.2846875 259.54671875 -200.3046875 259.88671875 C-200.5934375 260.62921875 -200.8821875 261.37171875 -201.1796875 262.13671875 C-202.59454294 265.59525426 -204.65550074 267.23753199 -207.3046875 269.88671875 C-216.70527038 281.12104762 -220.4840581 295.34114799 -219.3046875 309.88671875 C-217.22999552 320.9755897 -213.71411381 333.86842854 -205.3046875 341.88671875 C-204.401084 342.96357955 -203.50555728 344.04725667 -202.6171875 345.13671875 C-199.73949735 348.52981609 -196.56949455 351.3812367 -193.1875 354.26171875 C-190.76602067 356.35162622 -188.53539739 358.5957194 -186.3046875 360.88671875 C-185.4796875 361.71171875 -184.6546875 362.53671875 -183.8046875 363.38671875 C-111.3046875 435.88671875 -111.3046875 435.88671875 -109.3671875 437.94921875 C-98.50039986 448.1574132 -84.82328264 449.66167136 -70.59448242 449.5480957 C-51.99107887 448.88726133 -40.61912151 440.47086116 -27.94921875 427.53515625 C-25.08217486 424.66387744 -22.0930636 422.00686735 -19.01171875 419.37109375 C-16.65656443 417.32313347 -14.48119001 415.12204565 -12.3046875 412.88671875 C-10.63802083 411.22005208 -8.97135417 409.55338542 -7.3046875 407.88671875 C-6.7065625 407.27699219 -6.1084375 406.66726563 -5.4921875 406.0390625 C-2.17837936 402.67994838 1.15949593 399.44110374 4.7578125 396.38671875 C8.21085328 393.42696951 11.10288064 390.1944787 14.04296875 386.734375 C16.38665807 384.11365384 18.9312619 382.06267347 21.6953125 379.88671875 C22.6646875 378.99984375 23.6340625 378.11296875 24.6328125 377.19921875 C31.76276592 371.81537637 40.04913426 372.10769713 48.6953125 372.88671875 C57.46755635 375.05922894 63.30855306 379.6633043 68.6171875 386.84765625 C72.78639498 394.73289649 73.20737225 405.10819853 70.97265625 413.6484375 C68.04792296 420.62280149 63.26145908 425.49742126 57.5234375 430.25 C54.87088387 432.62482899 52.62567372 435.29716518 50.3203125 438.00390625 C48.23040503 440.42538558 45.98631185 442.65600886 43.6953125 444.88671875 C42.8703125 445.71171875 42.0453125 446.53671875 41.1953125 447.38671875 C40.3703125 448.21171875 39.5453125 449.03671875 38.6953125 449.88671875 C37.3959375 451.21703125 37.3959375 451.21703125 36.0703125 452.57421875 C33.6953125 454.88671875 33.6953125 454.88671875 30.6953125 456.88671875 C30.37949219 457.5209375 30.06367188 458.15515625 29.73828125 458.80859375 C28.50688432 461.26216366 27.13380292 462.41587778 25.0078125 464.13671875 C22.13559878 466.55869356 19.61671244 469.01443745 17.1953125 471.88671875 C13.69006198 475.99986181 9.84421218 479.43658113 5.6953125 482.88671875 C4.83679688 483.62148438 3.97828125 484.35625 3.09375 485.11328125 C-2.74294541 490.02925851 -8.66288637 494.14645531 -15.3046875 497.88671875 C-16.13871094 498.3971875 -16.97273438 498.90765625 -17.83203125 499.43359375 C-27.05935098 504.85628402 -37.98626574 507.33858309 -48.3046875 509.88671875 C-49.03155762 510.06702637 -49.75842773 510.24733398 -50.50732422 510.43310547 C-54.38480389 511.06186766 -58.21372816 511.12841778 -62.13671875 511.1953125 C-62.99766144 511.21052948 -63.85860413 511.22574646 -64.74563599 511.24142456 C-100.79872873 511.76016536 -130.97498071 505.61850487 -157.75808716 479.80081177 C-159.57563723 477.99476168 -161.38531229 476.18075989 -163.18798828 474.35986328 C-164.19916857 473.34947692 -165.21100511 472.33974697 -166.22343445 471.33061218 C-168.93001605 468.62909179 -171.6273148 465.91848418 -174.32271051 463.20580912 C-177.16016412 460.35314996 -180.00589004 457.50876386 -182.85055542 454.66329956 C-187.6144022 449.89578161 -192.37261434 445.12270199 -197.12695312 440.34570312 C-203.22516864 434.21848122 -209.33274166 428.10067497 -215.44325447 421.98571968 C-220.71473063 416.71026405 -225.98194564 411.43055984 -231.24846792 406.15015936 C-232.9351211 404.45941592 -234.62235434 402.76925299 -236.30966568 401.07916641 C-238.95685242 398.42708031 -241.60136428 395.77235438 -244.24382973 393.11556435 C-245.67403336 391.67869809 -247.10664261 390.24422754 -248.5393219 388.80982971 C-249.81731407 387.52327232 -249.81731407 387.52327232 -251.12112427 386.21072388 C-252.23098536 385.09640079 -252.23098536 385.09640079 -253.3632679 383.95956612 C-258.3046875 378.68362855 -258.3046875 378.68362855 -258.3046875 375.88671875 C-258.9646875 375.88671875 -259.6246875 375.88671875 -260.3046875 375.88671875 C-279.76100458 343.20010605 -286.67489491 306.82679387 -277.43603516 269.37915039 C-276.16510275 264.85127384 -274.38303808 260.78749881 -272.20117188 256.62792969 C-271.17777526 254.64022145 -270.39661072 252.62793789 -269.6796875 250.51171875 C-268.3046875 246.88671875 -268.3046875 246.88671875 -266.3046875 244.88671875 C-265.87542969 243.76523437 -265.87542969 243.76523437 -265.4375 242.62109375 C-261.86189535 233.99032389 -254.06254634 225.30425376 -247.3046875 218.88671875 C-246.6446875 218.88671875 -245.9846875 218.88671875 -245.3046875 218.88671875 C-245.0365625 218.24734375 -244.7684375 217.60796875 -244.4921875 216.94921875 C-243.3046875 214.88671875 -243.3046875 214.88671875 -240.3046875 213.88671875 C-239.9746875 213.22671875 -239.6446875 212.56671875 -239.3046875 211.88671875 C-238.3046875 209.88671875 -238.3046875 209.88671875 -235.3046875 208.88671875 C-234.9746875 208.22671875 -234.6446875 207.56671875 -234.3046875 206.88671875 C-233.3046875 204.88671875 -233.3046875 204.88671875 -230.3046875 203.88671875 C-229.9746875 203.22671875 -229.6446875 202.56671875 -229.3046875 201.88671875 C-228.3046875 199.88671875 -228.3046875 199.88671875 -225.3046875 198.88671875 C-224.9746875 198.22671875 -224.6446875 197.56671875 -224.3046875 196.88671875 C-223.3046875 194.88671875 -223.3046875 194.88671875 -220.3046875 193.88671875 C-219.9746875 193.22671875 -219.6446875 192.56671875 -219.3046875 191.88671875 C-218.3046875 189.88671875 -218.3046875 189.88671875 -215.3046875 188.88671875 C-214.9746875 188.22671875 -214.6446875 187.56671875 -214.3046875 186.88671875 C-213.3046875 184.88671875 -213.3046875 184.88671875 -210.3046875 183.88671875 C-209.9746875 183.22671875 -209.6446875 182.56671875 -209.3046875 181.88671875 C-208.3046875 179.88671875 -208.3046875 179.88671875 -205.3046875 178.88671875 C-204.9746875 178.22671875 -204.6446875 177.56671875 -204.3046875 176.88671875 C-203.3046875 174.88671875 -203.3046875 174.88671875 -200.3046875 173.88671875 C-199.9746875 173.22671875 -199.6446875 172.56671875 -199.3046875 171.88671875 C-198.3046875 169.88671875 -198.3046875 169.88671875 -195.3046875 168.88671875 C-194.9746875 168.22671875 -194.6446875 167.56671875 -194.3046875 166.88671875 C-193.3046875 164.88671875 -193.3046875 164.88671875 -190.3046875 163.88671875 C-189.9746875 163.22671875 -189.6446875 162.56671875 -189.3046875 161.88671875 C-188.3046875 159.88671875 -188.3046875 159.88671875 -185.3046875 158.88671875 C-184.9746875 158.22671875 -184.6446875 157.56671875 -184.3046875 156.88671875 C-183.3046875 154.88671875 -183.3046875 154.88671875 -180.3046875 153.88671875 C-179.9746875 153.22671875 -179.6446875 152.56671875 -179.3046875 151.88671875 C-178.3046875 149.88671875 -178.3046875 149.88671875 -175.3046875 148.88671875 C-174.9746875 148.22671875 -174.6446875 147.56671875 -174.3046875 146.88671875 C-173.3046875 144.88671875 -173.3046875 144.88671875 -170.3046875 143.88671875 C-169.9746875 143.22671875 -169.6446875 142.56671875 -169.3046875 141.88671875 C-168.3046875 139.88671875 -168.3046875 139.88671875 -165.3046875 138.88671875 C-164.9746875 138.22671875 -164.6446875 137.56671875 -164.3046875 136.88671875 C-163.3046875 134.88671875 -163.3046875 134.88671875 -160.3046875 133.88671875 C-159.9746875 133.22671875 -159.6446875 132.56671875 -159.3046875 131.88671875 C-158.3046875 129.88671875 -158.3046875 129.88671875 -155.3046875 128.88671875 C-154.9746875 128.22671875 -154.6446875 127.56671875 -154.3046875 126.88671875 C-153.3046875 124.88671875 -153.3046875 124.88671875 -150.3046875 123.88671875 C-149.9746875 123.22671875 -149.6446875 122.56671875 -149.3046875 121.88671875 C-148.3046875 119.88671875 -148.3046875 119.88671875 -145.3046875 118.88671875 C-144.9746875 118.22671875 -144.6446875 117.56671875 -144.3046875 116.88671875 C-143.3046875 114.88671875 -143.3046875 114.88671875 -140.3046875 113.88671875 C-139.9746875 113.22671875 -139.6446875 112.56671875 -139.3046875 111.88671875 C-138.3046875 109.88671875 -138.3046875 109.88671875 -135.3046875 108.88671875 C-134.9746875 108.22671875 -134.6446875 107.56671875 -134.3046875 106.88671875 C-133.3046875 104.88671875 -133.3046875 104.88671875 -130.3046875 103.88671875 C-129.9746875 103.22671875 -129.6446875 102.56671875 -129.3046875 101.88671875 C-128.3046875 99.88671875 -128.3046875 99.88671875 -125.3046875 98.88671875 C-124.9746875 98.22671875 -124.6446875 97.56671875 -124.3046875 96.88671875 C-123.3046875 94.88671875 -123.3046875 94.88671875 -120.3046875 93.88671875 C-119.9746875 93.22671875 -119.6446875 92.56671875 -119.3046875 91.88671875 C-118.3046875 89.88671875 -118.3046875 89.88671875 -115.3046875 88.88671875 C-114.9746875 88.22671875 -114.6446875 87.56671875 -114.3046875 86.88671875 C-113.3046875 84.88671875 -113.3046875 84.88671875 -110.3046875 83.88671875 C-109.9746875 83.22671875 -109.6446875 82.56671875 -109.3046875 81.88671875 C-108.3046875 79.88671875 -108.3046875 79.88671875 -105.3046875 78.88671875 C-104.9746875 78.22671875 -104.6446875 77.56671875 -104.3046875 76.88671875 C-103.3046875 74.88671875 -103.3046875 74.88671875 -100.3046875 73.88671875 C-99.9746875 73.22671875 -99.6446875 72.56671875 -99.3046875 71.88671875 C-98.3046875 69.88671875 -98.3046875 69.88671875 -95.3046875 68.88671875 C-94.9746875 68.22671875 -94.6446875 67.56671875 -94.3046875 66.88671875 C-93.3046875 64.88671875 -93.3046875 64.88671875 -90.3046875 63.88671875 C-89.9746875 63.22671875 -89.6446875 62.56671875 -89.3046875 61.88671875 C-88.3046875 59.88671875 -88.3046875 59.88671875 -85.3046875 58.88671875 C-84.9746875 58.22671875 -84.6446875 57.56671875 -84.3046875 56.88671875 C-83.3046875 54.88671875 -83.3046875 54.88671875 -80.3046875 53.88671875 C-79.9746875 53.22671875 -79.6446875 52.56671875 -79.3046875 51.88671875 C-78.3046875 49.88671875 -78.3046875 49.88671875 -75.3046875 48.88671875 C-74.9746875 48.22671875 -74.6446875 47.56671875 -74.3046875 46.88671875 C-73.3046875 44.88671875 -73.3046875 44.88671875 -70.3046875 43.88671875 C-69.9746875 43.22671875 -69.6446875 42.56671875 -69.3046875 41.88671875 C-68.3046875 39.88671875 -68.3046875 39.88671875 -65.3046875 38.88671875 C-64.9746875 38.22671875 -64.6446875 37.56671875 -64.3046875 36.88671875 C-63.3046875 34.88671875 -63.3046875 34.88671875 -60.3046875 33.88671875 C-59.9746875 33.22671875 -59.6446875 32.56671875 -59.3046875 31.88671875 C-58.3046875 29.88671875 -58.3046875 29.88671875 -55.3046875 28.88671875 C-54.9746875 28.22671875 -54.6446875 27.56671875 -54.3046875 26.88671875 C-53.3046875 24.88671875 -53.3046875 24.88671875 -50.3046875 23.88671875 C-49.9746875 23.22671875 -49.6446875 22.56671875 -49.3046875 21.88671875 C-48.3046875 19.88671875 -48.3046875 19.88671875 -45.3046875 18.88671875 C-44.9746875 18.22671875 -44.6446875 17.56671875 -44.3046875 16.88671875 C-43.3046875 14.88671875 -43.3046875 14.88671875 -40.3046875 13.88671875 C-39.9746875 13.22671875 -39.6446875 12.56671875 -39.3046875 11.88671875 C-38.3046875 9.88671875 -38.3046875 9.88671875 -35.3046875 8.88671875 C-34.62910244 7.55788202 -33.96353418 6.22393349 -33.3046875 4.88671875 C-25.10506704 -3.42731502 -10.53412448 -3.54872988 0 0 Z " fill="#000000" transform="translate(280.3046875,1.11328125)"/>
<path d="M0 0 C0.94070563 -0.00694553 1.88141127 -0.01389106 2.85062313 -0.02104706 C5.97496302 -0.03921421 9.09853473 -0.02908143 12.22290039 -0.01878357 C14.47413701 -0.02584717 16.72536887 -0.03459403 18.97659302 -0.04489136 C25.07159743 -0.06734378 31.16634166 -0.06445543 37.26137161 -0.05556989 C42.35587155 -0.05045112 47.45032298 -0.05775969 52.54481792 -0.06504196 C65.25128402 -0.08299738 77.9575686 -0.07664371 90.66401899 -0.05887216 C101.68215779 -0.04417428 112.70002391 -0.0588097 123.71812761 -0.08764232 C135.05255393 -0.11708016 146.3868196 -0.12748864 157.72129536 -0.11846012 C164.07639193 -0.11353597 170.43127655 -0.11571943 176.78634644 -0.13624763 C182.76193592 -0.15462723 188.73701921 -0.14861747 194.71258163 -0.12404823 C196.90146508 -0.119048 199.09038726 -0.12250952 201.27923965 -0.13519669 C224.05928359 -0.2567596 224.05928359 -0.2567596 231.98036194 7.27001095 C233.56789531 8.9531043 234.85346681 10.58418425 236.13305664 12.5146637 C236.83817383 13.53689026 237.54329102 14.55911682 238.26977539 15.61231995 C240.81393103 20.14327136 240.68764457 24.48950432 240.57055664 29.5771637 C240.57764648 30.44921448 240.58473633 31.32126526 240.59204102 32.21974182 C240.54083122 37.42344509 239.9135969 40.97358036 237.13305664 45.5146637 C236.69993164 46.3602887 236.26680664 47.2059137 235.82055664 48.0771637 C231.67792977 54.06095807 225.90518102 57.2257407 219.13305664 59.5146637 C215.88216949 60.03359419 212.71164609 60.06090116 209.42433167 60.02932739 C208.48856401 60.03627292 207.55279635 60.04321845 206.5886721 60.05037445 C203.47504566 60.06856811 200.36218774 60.05840131 197.24853516 60.04811096 C195.0072981 60.05517327 192.76606582 60.06391959 190.52484131 60.07421875 C184.45250402 60.09668705 178.38042769 60.09377889 172.3080647 60.08489728 C167.23349747 60.07978096 162.15897901 60.08708519 157.08441681 60.09436935 C144.42693014 60.11233081 131.76959911 60.105966 119.11212867 60.08819955 C108.13595829 60.07350515 97.16006172 60.08813117 86.18392659 60.11696971 C74.8947445 60.14640831 63.6056854 60.15681559 52.3164553 60.14778751 C45.98593574 60.14286307 39.65562896 60.14504822 33.32513618 60.16557503 C27.37172025 60.18395577 21.41881237 60.17794347 15.46542358 60.15337563 C13.28460378 60.14837553 11.1037451 60.15183656 8.92295647 60.16452408 C-13.25198384 60.28329751 -13.25198384 60.28329751 -22.52319336 52.19825745 C-23.13163086 51.45704651 -23.74006836 50.71583557 -24.36694336 49.9521637 C-24.99600586 49.20837463 -25.62506836 48.46458557 -26.27319336 47.69825745 C-31.76216353 40.17783018 -31.6648932 30.97906745 -30.55834961 22.0146637 C-29.16302441 14.70464142 -25.62194046 9.26879173 -19.86694336 4.5146637 C-13.25888702 1.12294419 -7.36316464 -0.07064069 0 0 Z " fill="#000000" transform="translate(189.866943359375,276.48533630371094)"/>
</svg>
